<svg width="5760" height="3240" viewBox="0 0 5760 3240" fill="none" xmlns="http://www.w3.org/2000/svg">
<rect width="5760" height="3240" fill="#044A48"/>
<path d="M3878.02 1433.21L3808.72 1507.17L3880 1635.78H3825.66L3780.56 1552.21C3777.06 1545.74 3768.47 1544.17 3762.91 1549L3740.9 1568.14V1635.78H3690.52L3690.52 1405.2H3740.9L3740.9 1514.85L3818.82 1433.21H3878.02Z" fill="white"/>
<path d="M3532.07 1637.83C3519.83 1637.83 3508.91 1636.86 3499.32 1634.92C3489.72 1632.87 3481.44 1629.52 3474.48 1624.85C3467.65 1620.18 3462.43 1613.86 3458.83 1605.89C3455.23 1597.8 3453.43 1587.73 3453.43 1575.66C3453.43 1564.16 3455.17 1554.53 3458.65 1546.79C3462.13 1539.05 3467.17 1532.9 3473.77 1528.34C3480.48 1523.68 3488.7 1520.32 3498.42 1518.27C3508.13 1516.22 3519.17 1515.19 3531.53 1515.19H3590.68C3595.78 1515.19 3599.91 1511.06 3599.91 1505.97C3599.91 1495.72 3597.99 1487.52 3594.15 1481.37C3590.43 1475.22 3585.09 1470.78 3578.13 1468.05C3571.18 1465.2 3562.84 1463.78 3553.12 1463.78C3545.2 1463.78 3537.95 1465.03 3531.35 1467.54C3524.75 1470.04 3519.95 1473.14 3514.98 1479.35C3510 1485.56 3505.13 1497.4 3505.13 1497.4L3455.77 1489.74C3458.05 1478.93 3462.13 1469.82 3468.01 1462.41C3474.01 1454.9 3481.32 1448.92 3489.96 1444.48C3498.6 1439.93 3508.25 1436.62 3518.93 1434.57C3529.61 1432.41 3540.94 1431.33 3552.94 1431.33C3574.05 1431.33 3591.87 1433.89 3606.39 1439.02C3620.9 1444.14 3631.88 1452.34 3639.32 1463.61C3646.87 1474.77 3650.65 1489.69 3650.65 1508.36V1635.78H3608.54L3604.23 1611.52C3602.43 1614.6 3599.49 1617.67 3595.41 1620.75C3591.33 1623.71 3586.17 1626.5 3579.93 1629.12C3573.81 1631.74 3566.74 1633.84 3558.7 1635.44C3550.66 1637.03 3541.78 1637.83 3532.07 1637.83ZM3543.4 1606.74C3552.76 1606.74 3561.22 1605.72 3568.78 1603.67C3576.33 1601.5 3582.69 1598.71 3587.85 1595.3C3596.51 1589.7 3599.19 1579.09 3599.19 1568.78V1541.67H3543.4C3537.89 1541.67 3532.73 1542.12 3527.93 1543.03C3523.25 1543.83 3519.17 1545.37 3515.69 1547.64C3512.21 1549.92 3509.51 1553.22 3507.6 1557.55C3505.68 1561.76 3504.72 1567.23 3504.72 1573.95C3504.72 1580.67 3505.68 1586.19 3507.6 1590.52C3509.51 1594.73 3512.21 1598.03 3515.69 1600.42C3519.29 1602.7 3523.43 1604.35 3528.11 1605.38C3532.79 1606.29 3537.89 1606.74 3543.4 1606.74Z" fill="white"/>
<path d="M3120.64 1433.38V1635.78H3171.2V1510.98C3172.3 1497.4 3175.9 1486.74 3182 1478.98C3189.56 1469.53 3199.33 1464.81 3211.33 1464.81C3222.97 1464.81 3231.36 1469.08 3236.52 1477.62C3241.68 1486.16 3244.26 1499.94 3244.26 1518.95V1635.78H3294.64V1515.19C3294.64 1514.71 3294.64 1514.22 3294.64 1513.74C3295.45 1498.84 3299.11 1487.26 3305.62 1478.98C3313.18 1469.53 3322.9 1464.81 3334.77 1464.81C3346.53 1464.81 3354.87 1469.08 3359.79 1477.62C3364.7 1486.16 3367.16 1499.94 3367.16 1518.95V1635.78H3417.73V1515.19C3417.73 1492.19 3413.29 1472.55 3404.41 1456.27C3395.53 1439.87 3377.96 1431.67 3351.69 1431.67C3328.65 1431.67 3308.86 1439.87 3292.31 1456.27C3289.66 1458.88 3287.23 1461.53 3285.01 1464.22C3283.78 1461.42 3282.44 1458.72 3280.97 1456.1C3271.97 1439.81 3254.34 1431.67 3228.07 1431.67C3209.36 1431.67 3192.41 1437.38 3177.84 1448.18C3173.03 1451.75 3165.82 1450.07 3163.81 1444.44L3159.87 1433.38H3120.64Z" fill="white"/>
<path d="M3028.83 1485.34C3030.99 1477.14 3033.75 1468.49 3037.11 1459.38C3040.47 1450.27 3044.07 1441.05 3047.91 1431.71C3051.98 1422.37 3055.94 1413.6 3059.78 1405.41H3092.53C3090.37 1414.29 3088.09 1423.74 3085.69 1433.76C3083.53 1443.55 3081.49 1453.23 3079.58 1462.79C3077.66 1472.36 3076.1 1481.13 3074.9 1489.1H3031.35L3028.83 1485.34Z" fill="white"/>
<path d="M2906.75 1637.32C2870.65 1637.32 2844.55 1628.61 2828.48 1611.19C2812.4 1593.65 2804.37 1567.86 2804.37 1533.81C2804.37 1499.77 2812.4 1474.15 2828.48 1456.95C2844.55 1439.76 2870.65 1431.16 2906.75 1431.16C2942.86 1431.16 2968.96 1439.76 2985.03 1456.95C3001.11 1474.15 3009.14 1499.77 3009.14 1533.81C3009.14 1567.86 3001.11 1593.65 2985.03 1611.19C2968.96 1628.61 2942.86 1637.32 2906.75 1637.32ZM2906.75 1604.52C2921.87 1604.52 2934.29 1599.8 2944 1590.35C2953.72 1580.78 2958.58 1562.05 2958.58 1534.15C2958.58 1506.14 2953.72 1487.41 2944 1477.96C2934.29 1468.51 2921.87 1463.78 2906.75 1463.78C2891.64 1463.78 2879.22 1468.51 2869.51 1477.96C2859.79 1487.41 2854.93 1506.14 2854.93 1534.15C2854.93 1562.05 2859.79 1580.78 2869.51 1590.35C2879.22 1599.8 2891.64 1604.52 2906.75 1604.52Z" fill="white"/>
<path d="M2595.61 1635.86V1405.2H2644.86V1507.71L2728.22 1405.2L2791.95 1405.2L2697.81 1520.7L2792.48 1635.86H2728.74L2665.22 1558.49C2658.38 1550.15 2644.86 1554.99 2644.86 1565.77V1635.86H2595.61Z" fill="white"/>
<path d="M3282.3 1834.79V1735.28H3298.88V1834.79H3282.3ZM3290.59 1714.15C3287.3 1714.15 3284.54 1713.1 3282.3 1710.99C3280.19 1708.75 3279.14 1705.99 3279.14 1702.7C3279.14 1699.41 3280.19 1696.77 3282.3 1694.8C3284.54 1692.69 3287.3 1691.64 3290.59 1691.64C3293.75 1691.64 3296.45 1692.69 3298.69 1694.8C3300.92 1696.77 3302.04 1699.41 3302.04 1702.7C3302.04 1705.99 3300.92 1708.75 3298.69 1710.99C3296.45 1713.1 3293.75 1714.15 3290.59 1714.15Z" fill="white"/>
<path d="M3219.12 1837.16C3210.83 1837.16 3203.59 1835.78 3197.4 1833.01C3191.35 1830.25 3186.48 1826.43 3182.79 1821.56C3179.24 1816.56 3177.07 1810.7 3176.28 1803.99H3193.26C3193.92 1807.41 3195.3 1810.57 3197.4 1813.47C3199.51 1816.36 3202.34 1818.73 3205.89 1820.57C3209.58 1822.29 3214.06 1823.14 3219.32 1823.14C3223.93 1823.14 3227.75 1822.48 3230.77 1821.17C3233.8 1819.72 3236.04 1817.81 3237.49 1815.44C3239.07 1813.07 3239.86 1810.5 3239.86 1807.74C3239.86 1803.66 3238.87 1800.57 3236.89 1798.46C3235.05 1796.35 3232.29 1794.71 3228.6 1793.52C3224.92 1792.21 3220.44 1791.09 3215.17 1790.17C3210.83 1789.38 3206.55 1788.32 3202.34 1787.01C3198.13 1785.69 3194.38 1783.98 3191.09 1781.87C3187.79 1779.64 3185.16 1776.94 3183.19 1773.78C3181.34 1770.62 3180.42 1766.74 3180.42 1762.13C3180.42 1756.47 3181.87 1751.47 3184.77 1747.12C3187.66 1742.65 3191.81 1739.16 3197.21 1736.66C3202.73 1734.16 3209.12 1732.91 3216.36 1732.91C3227.02 1732.91 3235.64 1735.47 3242.23 1740.61C3248.81 1745.74 3252.69 1753.18 3253.87 1762.92H3237.49C3236.83 1757.92 3234.66 1754.03 3230.97 1751.27C3227.42 1748.37 3222.48 1746.93 3216.16 1746.93C3209.97 1746.93 3205.24 1748.18 3201.95 1750.68C3198.79 1753.18 3197.21 1756.47 3197.21 1760.55C3197.21 1763.18 3198.06 1765.55 3199.77 1767.66C3201.62 1769.63 3204.25 1771.34 3207.67 1772.79C3211.23 1774.24 3215.57 1775.42 3220.7 1776.35C3227.28 1777.53 3233.27 1779.11 3238.67 1781.08C3244.07 1783.06 3248.41 1786.02 3251.7 1789.97C3255.13 1793.79 3256.84 1799.25 3256.84 1806.36C3256.84 1812.55 3255.26 1817.94 3252.1 1822.55C3249.07 1827.16 3244.73 1830.78 3239.07 1833.41C3233.41 1835.91 3226.76 1837.16 3219.12 1837.16Z" fill="white"/>
<path d="M3106.59 1837.16C3098.56 1837.16 3091.84 1835.78 3086.45 1833.01C3081.05 1830.12 3077.03 1826.37 3074.4 1821.76C3071.77 1817.02 3070.45 1811.89 3070.45 1806.36C3070.45 1799.64 3072.16 1793.98 3075.59 1789.38C3079.14 1784.64 3084.08 1781.08 3090.4 1778.72C3096.85 1776.21 3104.41 1774.96 3113.1 1774.96H3139.36C3139.36 1768.78 3138.38 1763.64 3136.4 1759.56C3134.56 1755.35 3131.79 1752.19 3128.11 1750.08C3124.55 1747.98 3120.08 1746.93 3114.68 1746.93C3108.36 1746.93 3102.9 1748.5 3098.29 1751.66C3093.69 1754.82 3090.86 1759.5 3089.8 1765.68H3072.82C3073.61 1758.57 3075.98 1752.65 3079.93 1747.91C3084.01 1743.04 3089.15 1739.36 3095.33 1736.86C3101.52 1734.22 3107.97 1732.91 3114.68 1732.91C3123.9 1732.91 3131.53 1734.62 3137.59 1738.04C3143.77 1741.33 3148.38 1746 3151.41 1752.06C3154.44 1757.98 3155.95 1765.03 3155.95 1773.19V1834.79H3141.14L3140.15 1817.22C3138.84 1819.98 3137.13 1822.62 3135.02 1825.12C3133.05 1827.49 3130.68 1829.59 3127.91 1831.43C3125.15 1833.15 3121.99 1834.53 3118.43 1835.58C3115.01 1836.63 3111.06 1837.16 3106.59 1837.16ZM3109.15 1823.14C3113.76 1823.14 3117.91 1822.22 3121.59 1820.38C3125.41 1818.4 3128.64 1815.77 3131.27 1812.48C3133.9 1809.06 3135.88 1805.31 3137.19 1801.22C3138.64 1797.14 3139.36 1792.87 3139.36 1788.39V1787.8H3114.48C3108.03 1787.8 3102.84 1788.59 3098.89 1790.17C3094.94 1791.62 3092.11 1793.72 3090.4 1796.49C3088.68 1799.12 3087.83 1802.15 3087.83 1805.57C3087.83 1809.12 3088.62 1812.22 3090.2 1814.85C3091.91 1817.48 3094.34 1819.52 3097.5 1820.97C3100.79 1822.42 3104.68 1823.14 3109.15 1823.14Z" fill="white"/>
<path d="M2960.63 1834.79V1692.62H2977.22V1752.06C2980.51 1746.13 2985.11 1741.46 2991.04 1738.04C2997.09 1734.62 3003.68 1732.91 3010.78 1732.91C3018.42 1732.91 3025.07 1734.48 3030.73 1737.64C3036.39 1740.67 3040.73 1745.34 3043.76 1751.66C3046.79 1757.98 3048.3 1765.95 3048.3 1775.55V1834.79H3031.91V1777.33C3031.91 1767.33 3029.8 1759.82 3025.59 1754.82C3021.38 1749.69 3015.26 1747.12 3007.23 1747.12C3001.57 1747.12 2996.44 1748.5 2991.83 1751.27C2987.35 1754.03 2983.8 1757.98 2981.17 1763.12C2978.53 1768.25 2977.22 1774.57 2977.22 1782.07V1834.79H2960.63Z" fill="white"/>
<path d="M2914.78 1834.79V1735.28H2931.36V1834.79H2914.78ZM2923.07 1714.15C2919.78 1714.15 2917.01 1713.1 2914.78 1710.99C2912.67 1708.75 2911.62 1705.99 2911.62 1702.7C2911.62 1699.41 2912.67 1696.77 2914.78 1694.8C2917.01 1692.69 2919.78 1691.64 2923.07 1691.64C2926.23 1691.64 2928.93 1692.69 2931.16 1694.8C2933.4 1696.77 2934.52 1699.41 2934.52 1702.7C2934.52 1705.99 2933.4 1708.75 2931.16 1710.99C2928.93 1713.1 2926.23 1714.15 2923.07 1714.15Z" fill="white"/>
<path d="M2814.34 1878.23L2838.63 1823.74H2832.9L2793.8 1735.28H2811.77L2844.15 1811.3L2878.12 1735.28H2895.29L2831.71 1878.23H2814.34Z" fill="white"/>
<path d="M2738.77 1837.16C2729.55 1837.16 2721.26 1835.05 2713.89 1830.84C2706.52 1826.5 2700.73 1820.44 2696.51 1812.68C2692.3 1804.78 2690.19 1795.63 2690.19 1785.23C2690.19 1774.57 2692.3 1765.35 2696.51 1757.59C2700.86 1749.69 2706.71 1743.63 2714.09 1739.42C2721.59 1735.08 2729.95 1732.91 2739.16 1732.91C2748.64 1732.91 2757 1735.08 2764.24 1739.42C2771.61 1743.63 2777.4 1749.69 2781.61 1757.59C2785.96 1765.35 2788.13 1774.5 2788.13 1785.03C2788.13 1795.56 2785.96 1804.78 2781.61 1812.68C2777.27 1820.44 2771.41 1826.5 2764.04 1830.84C2756.67 1835.05 2748.25 1837.16 2738.77 1837.16ZM2738.97 1822.94C2744.63 1822.94 2749.89 1821.56 2754.76 1818.8C2759.63 1815.9 2763.58 1811.62 2766.61 1805.96C2769.64 1800.3 2771.15 1793.33 2771.15 1785.03C2771.15 1776.61 2769.64 1769.63 2766.61 1764.1C2763.71 1758.44 2759.83 1754.23 2754.96 1751.47C2750.22 1748.57 2744.95 1747.12 2739.16 1747.12C2733.63 1747.12 2728.37 1748.57 2723.37 1751.47C2718.5 1754.23 2714.55 1758.44 2711.52 1764.1C2708.62 1769.63 2707.18 1776.61 2707.18 1785.03C2707.18 1793.33 2708.62 1800.3 2711.52 1805.96C2714.55 1811.62 2718.43 1815.9 2723.17 1818.8C2728.04 1821.56 2733.3 1822.94 2738.97 1822.94Z" fill="white"/>
<path d="M2595.45 1834.79V1696.57H2612.03V1821.56H2676.4V1834.79H2595.45Z" fill="white"/>
<path fill-rule="evenodd" clip-rule="evenodd" d="M2065.79 1620.93C2065.79 1715.77 2120.67 1839.12 2209.67 1903.35C2001.32 1930.67 1880 1764.89 1880 1620.93C1880 1597.42 1882.75 1576.03 1886.93 1557.09C1901.72 1490.18 1938.82 1408.58 1880.33 1372.88C1880.33 1372.88 1900.32 1334.16 1970.58 1334.16C2040.84 1334.16 2095.29 1401.94 2095.29 1457.55C2095.29 1513.16 2065.79 1526.1 2065.79 1620.93Z" fill="#45C48A"/>
<path fill-rule="evenodd" clip-rule="evenodd" d="M2394.72 1690.44C2394.72 1716.57 2382.03 1751.95 2328.86 1766.2C2275.68 1780.46 2225.25 1811.02 2212.62 1868.82C2171.61 1829.2 2155.2 1772.27 2173.49 1719.86C2193.44 1659.42 2242.81 1628.97 2286.28 1622.32C2369.7 1611.5 2393.16 1656.04 2394.72 1690.44Z" fill="#45C48A"/>
<path fill-rule="evenodd" clip-rule="evenodd" d="M2452.8 1419.39C2452.8 1388.16 2443.75 1359.06 2428.12 1334.54C2420.43 1333.96 2412.66 1333.67 2404.81 1333.67C2245.76 1333.67 2175.14 1416.35 2151.59 1448.75C2128.05 1481.15 2091.22 1541.69 2094.73 1636.5C2096.11 1674 2111.07 1728.63 2137.9 1771.61C2134.53 1664.65 2211.97 1605.29 2316.26 1576C2370.68 1560.72 2402.76 1540.18 2423.54 1511.03C2441.96 1485.18 2452.8 1453.55 2452.8 1419.39Z" fill="#45C48A"/>
</svg>
